<?xml version="1.0" encoding="UTF-8" standalone="no"?>
<svg
   xmlns:dc="http://purl.org/dc/elements/1.1/"
   xmlns:cc="http://creativecommons.org/ns#"
   xmlns:rdf="http://www.w3.org/1999/02/22-rdf-syntax-ns#"
   xmlns:svg="http://www.w3.org/2000/svg"
   xmlns="http://www.w3.org/2000/svg"
   viewBox="0 0 353.33334 208"
   height="208"
   width="353.33334"
   xml:space="preserve"
   id="svg2"
   version="1.1"><metadata
     id="metadata8"><rdf:RDF><cc:Work
         rdf:about=""><dc:format>image/svg+xml</dc:format><dc:type
           rdf:resource="http://purl.org/dc/dcmitype/StillImage" /></cc:Work></rdf:RDF></metadata><defs
     id="defs6" /><g
     transform="matrix(1.3333333,0,0,-1.3333333,0,208)"
     id="g10"><g
       transform="scale(0.1)"
       id="g12"><path
         id="path14"
         style="fill:#cc4a3f;fill-opacity:1;fill-rule:evenodd;stroke:none"
         d="m 1777.03,1290.47 v 9.53 l -1.01,10 -0.51,9.49 -2.97,20 -2.03,9.49 -5,18.99 -2.97,9.53 -3.52,9.49 -3.51,8.99 -3.99,9.02 -4.49,8.98 -4.49,8.52 -5,8.48 -5.51,8.51 -5.51,8.01 -6.01,7.97 -5.98,7.5 -6.52,7.5 -6.49,7.5 -6.99,7.03 -6.99,6.48 -7.5,6.49 -7.5,6.01 -8.52,5.51 -8,5.98 -8.01,5 -8.99,5 -8,5 -9.5,4.02 -8.98,4.49 -8.52,3.52 -9.49,2.97 -9.49,3.51 -9.53,2.5 -9.49,2.5 -9.5,1.49 -9.49,1.52 -10,1.49 -10,1.01 -9.49,0.51 h -10 l -9.53,-0.51 -20,-1.01 -10,-1.49 -9.49,-1.52 -9.5,-1.99 -9.49,-2.5 -9.49,-3.01 -9.53,-2.97 -8.99,-3.01 -8.98,-4.02 -9.02,-3.99 -8.99,-4.49 -8.51,-5 -8.48,-5 -8.52,-5 -8,-5.51 -7.5,-6.01 -8.01,-6.49 -7.5,-6.01 -13.99,-13.99 -6.48,-7.5 -6.52,-7.5 -5.98,-7.5 -5.51,-8 -6.01,-8.01 -5,-8.48 -5,-8.51 -5,-8.99 -3.99,-8.51 -4.02,-8.99 -3.48,-9.49 -3.51,-9.02 -2.5,-9.5 -3.01,-9.49 -1.99,-10 -2,-9.49 -1.48,-9.53 -2.03,-20 -0.47,-9.49 v -20 l 0.47,-9.5 1.52,-10 0.98,-10 1.52,-9.49 1.99,-10 2.5,-9.49 3.01,-9.53 3.01,-8.99 3.48,-9.49 3.51,-9.02 3.99,-8.99 4.49,-8.98 5,-8.52 5,-8.98 5,-8.01 5.51,-8.01 6.01,-8 6.49,-7.5 6.52,-7.5 6.99,-7 6.49,-6.99 7.5,-6.99 15,-12.03 8,-5.98 8.52,-5.51 7.97,-5.5 8.51,-5 8.99,-4.5 8.51,-3.98 8.99,-4.02 9.53,-3.48 8.98,-3.52 9.5,-3 9.49,-2.5 9.53,-2 9.49,-1.99 10,-1.52 10,-0.98 9.49,-1.01 10,-0.51 h 9.5 l 20,1.01 9.49,1.02 10,1.48 9.53,1.49 9.49,2.03 10,2.5 8.99,2.97 9.49,3.01 9.02,3.51 8.99,3.48 9.02,4.02 8.98,5 8.52,4.49 8.48,5 8,5.51 8.52,5.98 7.5,5.51 7.5,6.52 7.5,6.48 7.5,7 6.48,6.52 6.49,7.5 6.52,7.5 5.98,7.97 6.01,8.01 5,8 5.51,8.52 5,8.48 4.49,9.02 3.99,8.98 4.02,8.99 3.48,9.02 3.51,9.49 5,18.99 2,9.53 1.99,9.49 1.52,10 0.98,10 1.01,10 0.51,9.49 v 6.49" /><path
         id="path16"
         style="fill:#757575;fill-opacity:1;fill-rule:evenodd;stroke:none"
         d="m 746.02,936.988 -168.008,-27.5 -2.5,-3.008 6.519,-4.492 5.981,-4.488 16.008,-11.02 15.511,-10.5 24.489,-12.5 30,-16.492 36.019,-15.508 41.992,-19.492 50.508,-21.519 56.481,-25.469 71.019,-25.512 73.481,-28.008 85,-31.011 96.01,-29.489 108.48,-38.48 107.5,-32.5 101.52,-28.52 95,-23.98 90.51,-16.52 80.47,-18.48 76.01,-11.02 71.02,-11.992 69.49,-6.519 50.98,-7.5 49.53,-1.989 44.49,-3.011 38.48,1.519 25,-4.019 21.52,4.019 10.51,1.992 8.48,-1.48 -130,20.469 -125.51,27.031 -131.99,30.98 -255,75 -122.5,38.508 -118.01,44.492 -111.49,40.508 -106.01,40.981 -95,38.011 -88.479,33.508 -68.011,28.992 -60,27.5 -41.989,20 -27.5,14.02 -6.011,4.488 M 473.012,1345 l 7.5,-6.52 32.5,-22.5 50.508,-32 72.5,-43.98 82.5,-47.5 107.5,-56.52 115,-62.5 129.02,-68.99 136.48,-68.51 143.01,-75.511 150,-67.5 156.99,-67.5 157,-66.989 163.51,-60 155.98,-53.48 162.5,-46.52 -10.47,3 -14.02,-1.011 -27.5,-1.489 -32,8.52 -48.98,4.488 -56.02,10.512 -63,10 -63.99,17.5 -88.01,18.98 -88,26.02 -95.51,25.98 -99.49,36.008 -113.48,35 -117.03,45 -125,51.992 -131.99,58.52 -132.5,65 -117.5,52.5 -103.989,52.97 -89.492,47.03 -86.019,43.48 -68.508,41.01 -61.492,35 -50.5,31.49 -43.008,25.5 -35.981,25.51 -29.019,19.49 -18.481,16.02 -18.511,16.48 -7,6.49 -7.5,6.52 3.519,3.48 217.973,9.53" /><path
         id="path18"
         style="fill:#4f4b6a;fill-opacity:1;fill-rule:nonzero;stroke:none"
         d="M 256.41,70.5508 H 130.469 L 113.121,11.4805 H 0 L 134.531,369.449 H 255.16 L 389.691,11.4805 H 273.91 Z M 233.121,147.891 193.59,276.641 154.379,147.891 Z M 687.07,11.4805 h -92.808 v 42.039 C 580.391,36.2109 566.449,23.8711 552.379,16.4805 538.32,9.21875 521.02,5.55078 500.512,5.55078 c -27.422,0 -48.871,8.16012 -64.383,24.52732 -15.539,16.4414 -23.277,41.6407 -23.277,75.6209 v 165 h 99.847 v -142.5 c 0,-16.25 3,-27.808 9.063,-34.6795 6.008,-6.8789 14.449,-10.3203 25.308,-10.3203 11.879,0 21.602,4.5313 29.219,13.6016 7.582,9.1402 11.41,25.5392 11.41,49.2192 v 124.679 h 99.371 z" /><path
         id="path20"
         style="fill:#4f4b6a;fill-opacity:1;fill-rule:nonzero;stroke:none"
         d="m 868.09,369.449 v -98.75 h 54.68 v -72.5 h -54.68 v -92.027 c 0,-11.0509 1.09,-18.3634 3.281,-21.8712 3.199,-5.5508 8.899,-8.2813 17.027,-8.2813 7.262,0 17.543,2.0703 30.782,6.25 l 7.34,-68.5976 C 901.91,8.28125 878.949,5.55078 857.621,5.55078 c -24.691,0 -42.93,3.19922 -54.691,9.52732 -11.68,6.3321 -20.309,15.9727 -25.942,28.9024 -5.617,13.0078 -8.437,33.9883 -8.437,62.9685 v 91.25 h -36.563 v 72.5 h 36.563 v 47.66 z" /><path
         id="path22"
         style="fill:#4f4b6a;fill-opacity:1;fill-rule:nonzero;stroke:none"
         d="M 969.922,369.449 H 1069.3 V 237.578 c 13.51,13.942 26.95,23.942 40.31,30 13.32,6.012 29.1,9.063 47.34,9.063 26.96,0 48.21,-8.243 63.75,-24.692 15.63,-16.48 23.44,-41.679 23.44,-75.621 V 11.4805 H 1144.3 V 154.141 c 0,16.25 -3.05,27.699 -9.07,34.379 -6.05,6.75 -14.49,10.152 -25.31,10.152 -12.11,0 -21.87,-4.613 -29.37,-13.75 -7.5,-9.063 -11.25,-25.391 -11.25,-48.902 V 11.4805 h -99.378 z" /><path
         id="path24"
         style="fill:#4f4b6a;fill-opacity:1;fill-rule:nonzero;stroke:none"
         d="M 1591.72,116.48 H 1392.5 c 1.88,-15.929 6.17,-27.8081 12.97,-35.6206 9.57,-11.25 22.11,-16.8789 37.65,-16.8789 9.77,0 19.07,2.4297 27.82,7.3476 5.39,3.1211 11.17,8.5938 17.34,16.4024 l 97.81,-9.0586 C 1571.17,52.6211 1553.12,33.9102 1531.88,22.5781 1510.7,11.25 1480.39,5.55078 1440.94,5.55078 c -34.38,0 -61.41,4.83982 -81.1,14.52732 -19.68,9.6914 -36.01,25.043 -48.9,46.0938 -12.93,21.1289 -19.38,45.9761 -19.38,74.5271 0,40.512 12.97,73.281 38.91,98.281 25.94,25.079 61.76,37.661 107.5,37.661 37.07,0 66.33,-5.621 87.81,-16.871 21.56,-11.25 37.89,-27.579 49.06,-48.911 11.25,-21.25 16.88,-48.98 16.88,-83.129 z m -100.94,47.661 c -1.99,19.14 -7.19,32.847 -15.62,41.089 -8.36,8.321 -19.34,12.5 -32.97,12.5 -15.86,0 -28.52,-6.25 -37.97,-18.75 -5.94,-7.808 -9.77,-19.449 -11.41,-34.839 z" /><path
         id="path26"
         style="fill:#4f4b6a;fill-opacity:1;fill-rule:nonzero;stroke:none"
         d="m 1637.89,270.699 h 92.5 V 228.52 c 13.83,17.261 27.85,29.601 42.03,37.031 14.14,7.379 31.41,11.09 51.72,11.09 27.5,0 48.98,-8.2 64.53,-24.532 15.63,-16.371 23.44,-41.64 23.44,-75.781 V 11.4805 h -99.84 V 154.141 c 0,16.25 -3.05,27.699 -9.07,34.379 -6.05,6.75 -14.49,10.152 -25.31,10.152 -12.11,0 -21.87,-4.613 -29.37,-13.75 -7.5,-9.063 -11.25,-25.391 -11.25,-48.902 V 11.4805 h -99.38 z" /><path
         id="path28"
         style="fill:#4f4b6a;fill-opacity:1;fill-rule:nonzero;stroke:none"
         d="m 2091.72,369.449 v -98.75 h 54.69 v -72.5 h -54.69 v -92.027 c 0,-11.0509 1.09,-18.3634 3.28,-21.8712 3.2,-5.5508 8.91,-8.2813 17.03,-8.2813 7.27,0 17.54,2.0703 30.78,6.25 l 7.35,-68.5976 c -24.61,-5.39065 -47.58,-8.12112 -68.91,-8.12112 -24.69,0 -42.93,3.19922 -54.69,9.52732 -11.68,6.3321 -20.31,15.9727 -25.94,28.9024 -5.62,13.0078 -8.43,33.9883 -8.43,62.9685 v 91.25 h -36.57 v 72.5 h 36.57 v 47.66 z" /><path
         id="path30"
         style="fill:#4f4b6a;fill-opacity:1;fill-rule:nonzero;stroke:none"
         d="m 2197.3,369.449 h 99.3789 V 301.8006 H 2197.3 Z m 0,-98.75 h 99.3789 V 11.48 H 2197.3 Z" /><path
         id="path32"
         style="fill:#4f4b6a;fill-opacity:1;fill-rule:nonzero;stroke:none"
         d="m 2553.98,112.73 94.38,-10.621 C 2643.12,82.4219 2634.61,65.3086 2622.73,50.8594 2610.86,36.4805 2595.7,25.2695 2577.27,17.2695 2558.83,9.37891 2535.31,5.39063 2506.8,5.39063 c -27.5,0 -50.43,2.57812 -68.75,7.66017 -18.25,5.0703 -33.99,13.3594 -47.19,24.8398 -13.24,11.5586 -23.59,25.0391 -31.09,40.4688 -7.43,15.5117 -11.1,36.0196 -11.1,61.5626 0,26.637 4.53,48.828 13.6,66.558 6.64,13.008 15.78,24.692 27.34,35 11.56,10.399 23.44,18.129 35.62,23.129 19.38,8.012 44.22,12.032 74.54,12.032 42.26,0 74.53,-7.621 96.71,-22.813 22.27,-15.117 37.9,-37.187 46.88,-66.25 l -93.59,-12.5 c -2.93,11.012 -8.25,19.371 -15.94,25 -7.74,5.621 -18.09,8.442 -31.1,8.442 -16.48,0 -29.8,-5.942 -40,-17.821 -10.23,-11.789 -15.31,-29.609 -15.31,-53.429 0,-21.372 5.04,-37.5786 15.16,-48.5981 10.08,-11.0508 22.97,-16.5625 38.59,-16.5625 13.01,0 23.95,3.3203 32.81,10 8.95,6.6406 15.63,16.8711 20,30.6206 z" /></g></g></svg>