<svg id="prefix__Layer_3" data-name="Layer 3" xmlns="http://www.w3.org/2000/svg" viewBox="0 0 106 42"><defs><style>.prefix__cls-1{fill:#fff}</style></defs><path class="prefix__cls-1" d="M31.069 9.28h-11.02l-6.764 32.1H4.419l6.738-32.1H0l1.555-7.21h31.069zM42.907 41.136q-.49.138-1.13.274t-1.365.26q-.723.124-1.5.192t-1.541.069a9.017 9.017 0 01-3.123-.48 5.726 5.726 0 01-2.141-1.343 5.267 5.267 0 01-1.241-2.056 8.291 8.291 0 01-.4-2.619q0-.6.068-1.343t.178-1.549q.108-.809.259-1.645t.314-1.6q.108-.465.368-1.713t.6-2.866q.347-1.617.726-3.417t.721-3.412q.341-1.617.6-2.866t.37-1.712h8.73L40.071 29.1q-.219.96-.464 2.152a10.5 10.5 0 00-.245 2.07 1.579 1.579 0 00.654 1.453 2.757 2.757 0 001.5.411 7.018 7.018 0 001.433-.151 7.285 7.285 0 001.321-.4q-.354 1.646-.682 3.249t-.681 3.252zm2.837-36.874a4.383 4.383 0 01-.408 1.919 4.635 4.635 0 01-1.106 1.468 4.835 4.835 0 01-1.635.945 6.125 6.125 0 01-2.033.329 5.678 5.678 0 01-1.923-.316 4.63 4.63 0 01-1.527-.877A4.1 4.1 0 0136.1 6.4a3.813 3.813 0 01-.368-1.672 4.374 4.374 0 011.487-3.385A4.819 4.819 0 0138.871.4a6.291 6.291 0 012.073-.332 5.592 5.592 0 011.908.315 4.716 4.716 0 011.516.877 4.134 4.134 0 011.008 1.33 3.819 3.819 0 01.368 1.672zM62.466 41.383h-9.6L49.182 13.31h8.592l1.119 15.545q.054.521.1 1.26t.068 1.536q.027.8.041 1.577a12.4 12.4 0 01-.041 1.357h.108c.145-.385.318-.809.519-1.276l.628-1.452c.218-.502.44-1.005.667-1.508s.441-.982.641-1.439l7.5-15.6h9.493zM106 24.44a21.95 21.95 0 01-.381 4 19.769 19.769 0 01-1.2 4.017 17.731 17.731 0 01-2.115 3.715 13.717 13.717 0 01-3.136 3.057 15.409 15.409 0 01-4.256 2.071 18.139 18.139 0 01-5.5.768 14.788 14.788 0 01-5.414-.9 10.322 10.322 0 01-3.806-2.5 10.139 10.139 0 01-2.233-3.768 14.594 14.594 0 01-.737-4.7 21.5 21.5 0 01.409-4.126 19.056 19.056 0 011.269-4.047 17.3 17.3 0 012.2-3.66 14.224 14.224 0 013.191-2.988 15.579 15.579 0 014.242-2.015 18.047 18.047 0 015.359-.74 14.8 14.8 0 015.17.836 10.351 10.351 0 013.792 2.385 10.229 10.229 0 012.346 3.728 13.969 13.969 0 01.8 4.867zm-8.7.11a7.884 7.884 0 00-.273-2.125 4.93 4.93 0 00-.8-1.672 3.831 3.831 0 00-1.3-1.1 3.789 3.789 0 00-1.772-.4 5.07 5.07 0 00-3.069.987 8.458 8.458 0 00-2.28 2.56 13.132 13.132 0 00-1.419 3.5 15.909 15.909 0 00-.487 3.9 5.811 5.811 0 001.16 3.866 3.759 3.759 0 003.014 1.37 5.254 5.254 0 003.123-.96 8.028 8.028 0 002.264-2.509 12.582 12.582 0 001.378-3.5 16.881 16.881 0 00.461-3.917z" transform="translate(0 -.068)"/></svg>